PathFileType	4	(X/Y/Z)	C:\Users\xlb\Desktop\20210112\20210112\bx_n_10_501.trc
DataRate	CameraRate	NumFrames	NumMarkers	Units	OrigDataRate	OrigDataStartFrame	OrigNumFrames
50.00	50.00	       6	43	mm	50.00	55	       436
Frame#	Time	Top.Head			R.Acromium			L.Acromium			Sternum			R.ASIS			L.ASIS			V.Sacral			R.Thigh.Upper			R.Thigh.Front			R.Thigh.Rear			R.Knee.Lat			R.Knee.Med			R.Shank.Upper			R.Shank.Front			R.Shank.Rear			R.Ankle.Lat			R.Midfoot.Lat			R.Toe.Lat			R.Toe.Tip			R.Toe.Med			R.Ankle.Med			R.Midfoot.Sup			R.Heel			L.Thigh.Upper			L.Thigh.Front			L.Thigh.Rear			L.Knee.Lat			L.Knee.Med			L.Shank.Upper			L.Shank.Front			L.Shank.Rear			L.Ankle.Lat			L.Midfoot.Lat			L.Toe.Lat			L.Toe.Tip			L.Toe.Med			L.Ankle.Med			L.Midfoot.Sup			L.Heel			origin1 front left			origin2 front right			origin 3 back right			origin 4 back leftt			
		X1	Y1	Z1	X2	Y2	Z2	X3	Y3	Z3	X4	Y4	Z4	X5	Y5	Z5	X6	Y6	Z6	X7	Y7	Z7	X8	Y8	Z8	X9	Y9	Z9	X10	Y10	Z10	X11	Y11	Z11	X12	Y12	Z12	X13	Y13	Z13	X14	Y14	Z14	X15	Y15	Z15	X16	Y16	Z16	X17	Y17	Z17	X18	Y18	Z18	X19	Y19	Z19	X20	Y20	Z20	X21	Y21	Z21	X22	Y22	Z22	X23	Y23	Z23	X24	Y24	Z24	X25	Y25	Z25	X26	Y26	Z26	X27	Y27	Z27	X28	Y28	Z28	X29	Y29	Z29	X30	Y30	Z30	X31	Y31	Z31	X32	Y32	Z32	X33	Y33	Z33	X34	Y34	Z34	X35	Y35	Z35	X36	Y36	Z36	X37	Y37	Z37	X38	Y38	Z38	X39	Y39	Z39	X40	Y40	Z40	X41	Y41	Z41	X42	Y42	Z42	X43	Y43	Z43	

55	1.080	-297.85544	142.53723	1652.11621	-486.25528	-51.94969	1422.99243	-528.69257	296.92023	1421.13000	-557.95007	115.57865	1228.94055	-706.22516	-6.14343	1035.66809	-721.18292	239.63367	1053.36865	-906.97833	86.88239	1076.71851	-770.80847	-76.36841	872.27643	-687.06195	-4.51873	813.83594	-772.78992	-63.98861	756.21472	-768.47888	-35.74548	614.03601	-751.28857	75.12633	575.05389	-768.00531	-32.80209	566.93042	-713.29462	18.84386	525.27423	-799.48785	-47.28614	482.17862	-761.64111	-20.73134	204.66612	-649.59601	-68.00552	161.46408	-607.36249	-75.19812	157.84314	-550.73639	-28.24051	162.65454	-598.81567	25.58525	167.22787	-723.49115	68.20975	217.86198	-673.43591	52.92168	159.96779	-793.64075	37.95553	173.96303	-805.81061	284.06274	871.86011	-696.50507	213.15231	823.06836	-791.56421	274.67694	739.36157	-803.00848	251.17107	635.27295	-752.31891	143.46878	576.98926	-792.47577	246.47450	571.36719	-731.64789	205.53014	538.15002	-820.51160	258.60434	492.92212	-772.40320	227.28667	202.73175	-661.41956	298.95575	156.31177	-624.67969	307.55048	157.81680	-557.04694	255.70183	164.93292	-592.77148	220.13889	174.45795	-716.92847	155.56801	219.32712	-675.56812	173.80038	160.30753	-797.18738	178.43132	182.36658	-527.95026	304.07816	146.39700	-517.62909	-73.05945	143.04114	-875.86230	-78.66946	141.11974	-882.45013	296.31866	144.67563	
56	1.100	-288.47366	142.17688	1639.70752	-478.65234	-51.47625	1412.86169	-520.04517	296.53543	1411.01331	-554.60144	115.08636	1219.73364	-709.87598	-6.61699	1034.23486	-724.44116	239.17062	1052.12244	-909.93451	86.81885	1077.34656	-774.66248	-76.72214	871.88275	-690.66370	-4.88616	813.70813	-776.50397	-63.95021	755.54633	-771.06299	-35.97970	613.80255	-753.59680	74.83494	574.88141	-770.44745	-32.94129	566.62054	-715.40515	18.64167	525.55048	-801.25885	-47.58806	481.82635	-761.73737	-20.82358	204.51031	-649.67365	-68.16384	161.37813	-607.39014	-75.34549	157.66068	-550.60217	-28.08274	162.62889	-598.78516	25.67645	167.16479	-723.75488	68.04367	218.02589	-673.37970	52.80834	160.12505	-793.60828	37.79031	173.94543	-809.14899	284.07986	871.50995	-699.95062	212.53667	822.82111	-794.19836	274.75015	738.90839	-805.21161	251.07687	634.74854	-754.46198	143.24416	576.68970	-794.37408	246.26468	570.99310	-733.51111	205.26964	538.07935	-821.95880	258.61832	492.51755	-772.47314	227.28438	202.63570	-661.39825	298.99191	156.35411	-624.66766	307.50449	157.88454	-557.04224	255.58914	164.74754	-592.73444	220.09605	174.36972	-717.03174	155.56416	219.38025	-675.52783	173.85283	160.35873	-797.22137	178.46465	182.29341	-527.93481	304.04788	146.41217	-517.59753	-73.06403	143.07930	-875.87671	-78.66245	141.07736	-882.57855	296.26706	144.69276	
57	1.120	-279.33441	141.74826	1627.12012	-471.27042	-51.12670	1402.62988	-511.47775	296.04633	1400.61340	-551.59814	114.37943	1210.53345	-713.33820	-7.04070	1032.75891	-727.58319	238.73807	1050.86609	-912.39801	86.69721	1077.95740	-778.35706	-77.06503	871.47644	-694.11023	-5.20635	813.54401	-780.14459	-63.81183	754.84760	-773.55701	-36.18641	613.55383	-755.87872	74.60599	574.68604	-772.77490	-33.01173	566.30884	-717.44971	18.49512	525.85376	-802.98035	-47.84898	481.48312	-761.82007	-20.88211	204.27266	-649.72327	-68.30794	161.28149	-607.41443	-75.45757	157.46114	-550.52527	-27.95308	162.64737	-598.73798	25.80393	167.11954	-723.96210	67.85410	218.06497	-673.34369	52.71096	160.16805	-793.55597	37.59090	173.93298	-812.39069	284.08929	871.12500	-703.11768	211.95116	822.57666	-796.67834	274.74060	738.49744	-807.32782	250.99028	634.21869	-756.54065	143.01733	576.40680	-796.20483	246.03212	570.63367	-735.28424	205.09947	538.01282	-823.31616	258.58807	492.04620	-772.50446	227.30934	202.58252	-661.39984	299.05444	156.41801	-624.66699	307.46295	157.95653	-556.98077	255.48827	164.59248	-592.68488	220.04007	174.23146	-717.06708	155.56194	219.38803	-675.46973	173.91130	160.39853	-797.22949	178.46191	182.27129	-527.93542	304.02039	146.37512	-517.63568	-73.06646	143.08315	-875.88324	-78.66560	141.05898	-882.68134	296.21182	144.70605	
58	1.140	-270.43771	141.32593	1614.42139	-464.07941	-50.89961	1392.36084	-503.03836	295.50113	1390.04553	-548.95813	113.54610	1201.39905	-716.62628	-7.40877	1031.24402	-730.55823	238.37019	1049.59338	-914.54730	86.43250	1078.64294	-781.94220	-77.36874	871.04620	-697.42279	-5.51157	813.32593	-783.50012	-63.81964	754.25665	-775.98926	-36.35876	613.25415	-758.19641	74.44313	574.47894	-774.98322	-33.08714	566.02130	-719.41455	18.41534	526.06982	-804.65356	-48.09476	481.14999	-761.89410	-20.97278	204.02492	-649.71021	-68.39709	161.14635	-607.37396	-75.54178	157.25812	-550.49249	-27.85611	162.67984	-598.69556	25.91516	167.08313	-724.09583	67.71790	218.07626	-673.35931	52.61042	160.15894	-793.50635	37.36395	173.91634	-815.55908	284.08939	870.71246	-706.13452	211.41730	822.36792	-799.12219	274.69046	738.11407	-809.43317	250.96089	633.70496	-758.57129	142.85025	576.13818	-798.02771	245.86246	570.27405	-737.01062	205.00685	537.97699	-824.63757	258.56262	491.52557	-772.47089	227.37091	202.56458	-661.42334	299.11093	156.47040	-624.67139	307.43732	158.01178	-556.88898	255.41977	164.48592	-592.64587	219.96339	174.06844	-717.07971	155.56125	219.41341	-675.42810	173.95135	160.43326	-797.22888	178.46637	182.27040	-527.96356	304.01404	146.29839	-517.71631	-73.04561	143.04976	-875.87994	-78.67690	141.07014	-882.72021	296.15555	144.68750	
59	1.160	-261.82349	140.92978	1601.61633	-457.05804	-50.70770	1382.04431	-494.76605	294.90967	1379.39819	-546.59167	112.74777	1192.38184	-719.78839	-7.70379	1029.67651	-733.30872	238.06841	1048.25671	-916.60291	86.06962	1079.44019	-785.47644	-77.57749	870.57330	-700.62952	-5.80409	813.09088	-786.48071	-64.07712	753.85052	-778.35907	-36.47815	612.91901	-760.48651	74.32603	574.26196	-777.08240	-33.21744	565.76160	-721.29083	18.38124	526.13708	-806.26422	-48.32854	480.80923	-761.95642	-21.14537	203.84531	-649.63696	-68.42393	160.97331	-607.27197	-75.59344	157.06702	-550.45935	-27.77911	162.70905	-598.66412	25.97898	167.04948	-724.18903	67.64785	218.12039	-673.43762	52.48024	160.12482	-793.48718	37.14866	173.92445	-818.65027	284.10074	870.29004	-709.13135	210.94933	822.17352	-801.60706	274.71616	737.73676	-811.54785	251.00574	633.22992	-760.53729	142.79398	575.85858	-799.84918	245.83366	569.91156	-738.69696	204.95316	537.98608	-825.94550	258.59052	490.97943	-772.35321	227.47664	202.54831	-661.43243	299.13770	156.49034	-624.66278	307.43942	158.04712	-556.79504	255.38910	164.41978	-592.62396	219.86705	173.93176	-717.14215	155.56694	219.53336	-675.42285	173.96014	160.46609	-797.24054	178.50114	182.26115	-527.99518	304.02185	146.23479	-517.79553	-72.99993	142.99832	-875.87311	-78.69007	141.09047	-882.69879	296.11404	144.64690	
60	1.180	-253.53967	140.51945	1588.64893	-450.23560	-50.47205	1371.62427	-486.71875	294.23373	1368.71667	-544.40955	112.10633	1183.52002	-722.85364	-7.91654	1028.02869	-735.79675	237.82890	1046.79053	-918.72998	85.72526	1080.32996	-788.95856	-77.69676	870.08832	-703.80310	-6.01501	812.87952	-789.16052	-64.50715	753.62531	-780.65936	-36.54950	612.61298	-762.67670	74.23747	574.02832	-779.11108	-33.40246	565.52496	-723.13141	18.36135	526.08319	-807.82172	-48.53332	480.42535	-762.01526	-21.37091	203.74083	-649.54443	-68.41466	160.80806	-607.16644	-75.62649	156.91374	-550.39667	-27.71153	162.72395	-598.62030	26.01188	167.04027	-724.28180	67.61790	218.20912	-673.56818	52.30790	160.06758	-793.50598	36.97517	173.97461	-821.69794	284.14075	869.86377	-712.20032	210.56688	821.95905	-804.14935	274.92334	737.31818	-813.64063	251.10281	632.78589	-762.48883	142.80203	575.59576	-801.63867	245.93539	569.55066	-740.32568	204.91991	538.02704	-827.24963	258.70514	490.44351	-772.19635	227.64012	202.51552	-661.39148	299.12991	156.47513	-624.62439	307.46512	158.08815	-556.72449	255.38596	164.37317	-592.59204	219.76079	173.84564	-717.31702	155.60394	219.78206	-675.45209	173.93686	160.49866	-797.27808	178.56361	182.23097	-528.00995	304.02328	146.22000	-517.84546	-72.95843	142.95435	-875.86572	-78.69629	141.09352	-882.65869	296.09720	144.60948	
